<svg width="60" height="60" viewBox="0 0 60 60" fill="none" xmlns="http://www.w3.org/2000/svg">
<circle cx="30" cy="30" r="29.5" fill="#FAFAFA" stroke="#D9D9D9"/>
<path d="M30.1253 12.5C23.7613 12.5 19.3753 16.886 19.3753 23.25C19.3753 24.119 19.3753 25.0417 19.3753 26.8334C19.3753 28.625 19.085 29.5926 18.0871 30.4167C17.9742 30.5099 17.5012 30.9166 17.3596 31.033C15.0932 32.9071 13.9805 34.663 14.0003 37.5834C14.0146 39.5148 15.6002 41.1865 17.5836 41.1668H25.0925C25.0925 41.1668 24.7503 42.2615 24.7503 42.9584C24.7503 45.9272 27.1565 48.3334 30.1253 48.3334C33.0941 48.3334 35.5003 45.9272 35.5003 42.9584C35.5003 42.2615 35.1724 41.1668 35.1724 41.1668H42.6669C44.6449 41.1721 46.2485 39.5256 46.2503 37.5834C46.2538 34.6845 45.1287 32.8982 42.8909 31.033C42.744 30.9094 42.2244 30.5135 42.1079 30.4167C41.1315 29.6033 40.8753 28.625 40.8753 26.8334C40.8753 24.5938 40.8753 23.25 40.8753 23.25C40.8753 16.886 36.4893 12.5 30.1253 12.5ZM30.1253 41.1668C31.1143 41.1668 31.9169 41.9694 31.9169 42.9584C31.9169 43.9474 31.1143 44.7501 30.1253 44.7501C29.1363 44.7501 28.3336 43.9474 28.3336 42.9584C28.3336 41.9694 29.1363 41.1668 30.1253 41.1668Z" fill="#FFC700"/>
<circle cx="30" cy="30" r="29.5" fill="#535353" stroke="#535353"/>
<path d="M30.1253 12.5C23.7613 12.5 19.3753 16.886 19.3753 23.25C19.3753 24.119 19.3753 25.0417 19.3753 26.8334C19.3753 28.625 19.085 29.5926 18.0871 30.4167C17.9742 30.5099 17.5012 30.9166 17.3596 31.033C15.0932 32.9071 13.9805 34.663 14.0003 37.5834C14.0146 39.5148 15.6002 41.1865 17.5836 41.1668H25.0925C25.0925 41.1668 24.7503 42.2615 24.7503 42.9584C24.7503 45.9272 27.1565 48.3334 30.1253 48.3334C33.0941 48.3334 35.5003 45.9272 35.5003 42.9584C35.5003 42.2615 35.1724 41.1668 35.1724 41.1668H42.6669C44.6449 41.1721 46.2485 39.5256 46.2503 37.5834C46.2538 34.6845 45.1287 32.8982 42.8909 31.033C42.744 30.9094 42.2244 30.5135 42.1079 30.4167C41.1315 29.6033 40.8753 28.625 40.8753 26.8334C40.8753 24.5938 40.8753 23.25 40.8753 23.25C40.8753 16.886 36.4893 12.5 30.1253 12.5ZM30.1253 41.1668C31.1143 41.1668 31.9169 41.9694 31.9169 42.9584C31.9169 43.9474 31.1143 44.7501 30.1253 44.7501C29.1363 44.7501 28.3336 43.9474 28.3336 42.9584C28.3336 41.9694 29.1363 41.1668 30.1253 41.1668Z" fill="#FFE072"/>
</svg>
