<svg width="43" height="43" viewBox="0 0 43 43" fill="none" xmlns="http://www.w3.org/2000/svg">
<path d="M16.1253 3.5C9.76126 3.5 5.37526 7.88601 5.37526 14.25C5.37526 15.119 5.37526 16.0417 5.37526 17.8334C5.37526 19.625 5.08502 20.5926 4.08706 21.4167C3.97419 21.5099 3.50117 21.9166 3.35963 22.033C1.09317 23.9071 -0.0194511 25.663 0.000257254 28.5834C0.0145906 30.5148 1.60022 32.1865 3.58359 32.1668H11.0925C11.0925 32.1668 10.7503 33.2615 10.7503 33.9584C10.7503 36.9272 13.1565 39.3334 16.1253 39.3334C19.0941 39.3334 21.5003 36.9272 21.5003 33.9584C21.5003 33.2615 21.1724 32.1668 21.1724 32.1668H28.6669C30.6449 32.1721 32.2485 30.5256 32.2503 28.5834C32.2538 25.6845 31.1287 23.8982 28.8909 22.033C28.744 21.9094 28.2244 21.5135 28.1079 21.4167C27.1315 20.6033 26.8753 19.625 26.8753 17.8334C26.8753 15.5938 26.8753 14.25 26.8753 14.25C26.8753 7.88601 22.4893 3.5 16.1253 3.5ZM16.1253 32.1668C17.1143 32.1668 17.9169 32.9694 17.9169 33.9584C17.9169 34.9474 17.1143 35.7501 16.1253 35.7501C15.1363 35.7501 14.3336 34.9474 14.3336 33.9584C14.3336 32.9694 15.1363 32.1668 16.1253 32.1668Z" fill="#FFE072"/>
</svg>
