<svg width="45" height="34" viewBox="0 0 45 34" fill="none" xmlns="http://www.w3.org/2000/svg">
<path d="M15.0112 2.85352C13.9762 2.85352 13.1362 3.48818 13.1362 4.27018C8.99435 4.27018 5.63623 6.80743 5.63623 9.93685V11.4414L39.3862 11.3535V9.93685C39.3862 6.80743 36.0281 4.27018 31.8862 4.27018C31.8862 3.48818 31.0462 2.85352 30.0112 2.85352C28.9762 2.85352 28.1362 3.48818 28.1362 4.27018H16.8862C16.8862 3.48818 16.0462 2.85352 15.0112 2.85352ZM5.63623 14.1868V24.1035C5.63623 27.2329 8.99435 29.7702 13.1362 29.7702H31.8862C36.0281 29.7702 39.3862 27.2329 39.3862 24.1035V14.1868H5.63623Z" fill="#535353"/>
</svg>
