<svg width="36" height="30" viewBox="0 0 36 30" fill="none" xmlns="http://www.w3.org/2000/svg">
<path d="M24.3 0C19.8265 0 16.2 3.35796 16.2 7.49916C16.2 11.6404 19.8265 14.9983 24.3 14.9983C28.7735 14.9983 32.4 11.6404 32.4 7.49916C32.4 3.35796 28.7735 0 24.3 0ZM10.8 1.66648C6.82362 1.66648 3.6 4.65115 3.6 8.3324C3.6 12.0137 6.82362 14.9983 10.8 14.9983C12.2929 14.9983 13.6557 14.6184 14.855 13.8418C11.7792 9.60898 12.2152 5.55605 13.8915 2.29141C12.9341 1.87146 11.8825 1.66648 10.8 1.66648ZM5.5125 17.2381C2.21112 18.4996 0 21.5909 0 24.9972V28.3302C0 29.2501 0.80586 29.9966 1.8 29.9966L9.27504 30C8.85384 28.7335 8.97768 26.6803 9.0054 25.0189C9.0639 21.4909 10.6398 18.9745 11.257 18.3112C10.1227 18.3029 8.76132 18.048 7.7625 17.6547C7.5213 17.5597 7.38126 17.4847 6.91884 17.2897C6.46542 17.0981 5.97294 17.0614 5.5125 17.2381ZM18.1125 17.2381C14.8111 18.4996 12.6 21.5909 12.6 24.9972V28.3302C12.6 29.2501 13.4059 29.9966 14.4 29.9966H34.2C35.1941 29.9966 36 29.2501 36 28.3302V24.9972C36 21.6709 33.7766 18.6546 30.4875 17.3414C30.0245 17.1564 29.4851 17.1514 29.025 17.3414C27.4324 18.003 25.8808 18.3313 24.3 18.3313C22.7246 18.3313 21.1676 17.9847 19.5188 17.2897C19.0654 17.0981 18.5729 17.0614 18.1125 17.2381Z" fill="#B1AFFF"/>
</svg>
