<svg width="44" height="38" viewBox="0 0 44 38" fill="none" xmlns="http://www.w3.org/2000/svg">
<g filter="url(#filter0_d_25_608)">
<path d="M28.3 0C23.8265 0 20.2 3.35796 20.2 7.49916C20.2 11.6404 23.8265 14.9983 28.3 14.9983C32.7735 14.9983 36.4 11.6404 36.4 7.49916C36.4 3.35796 32.7735 0 28.3 0ZM14.8 1.66648C10.8236 1.66648 7.6 4.65115 7.6 8.3324C7.6 12.0137 10.8236 14.9983 14.8 14.9983C16.2929 14.9983 17.6557 14.6184 18.855 13.8418C15.7792 9.60898 16.2152 5.55605 17.8915 2.29141C16.9341 1.87146 15.8825 1.66648 14.8 1.66648ZM9.5125 17.2381C6.21112 18.4996 4 21.5909 4 24.9972V28.3302C4 29.2501 4.80586 29.9966 5.8 29.9966L13.275 30C12.8538 28.7335 12.9777 26.6803 13.0054 25.0189C13.0639 21.4909 14.6398 18.9745 15.257 18.3112C14.1227 18.3029 12.7613 18.048 11.7625 17.6547C11.5213 17.5597 11.3813 17.4847 10.9188 17.2897C10.4654 17.0981 9.97294 17.0614 9.5125 17.2381ZM22.1125 17.2381C18.8111 18.4996 16.6 21.5909 16.6 24.9972V28.3302C16.6 29.2501 17.4059 29.9966 18.4 29.9966H38.2C39.1941 29.9966 40 29.2501 40 28.3302V24.9972C40 21.6709 37.7766 18.6546 34.4875 17.3414C34.0245 17.1564 33.4851 17.1514 33.025 17.3414C31.4324 18.003 29.8808 18.3313 28.3 18.3313C26.7246 18.3313 25.1676 17.9847 23.5188 17.2897C23.0654 17.0981 22.5729 17.0614 22.1125 17.2381Z" fill="#B1AFFF"/>
</g>
<defs>
<filter id="filter0_d_25_608" x="0" y="0" width="44" height="38" filterUnits="userSpaceOnUse" color-interpolation-filters="sRGB">
<feFlood flood-opacity="0" result="BackgroundImageFix"/>
<feColorMatrix in="SourceAlpha" type="matrix" values="0 0 0 0 0 0 0 0 0 0 0 0 0 0 0 0 0 0 127 0" result="hardAlpha"/>
<feOffset dy="4"/>
<feGaussianBlur stdDeviation="2"/>
<feComposite in2="hardAlpha" operator="out"/>
<feColorMatrix type="matrix" values="0 0 0 0 0 0 0 0 0 0 0 0 0 0 0 0 0 0 0.25 0"/>
<feBlend mode="normal" in2="BackgroundImageFix" result="effect1_dropShadow_25_608"/>
<feBlend mode="normal" in="SourceGraphic" in2="effect1_dropShadow_25_608" result="shape"/>
</filter>
</defs>
</svg>
