<svg width="68" height="68" viewBox="0 0 68 68" fill="none" xmlns="http://www.w3.org/2000/svg">
<g filter="url(#filter0_d_152_424)">
<circle cx="34" cy="30" r="30" fill="#535353"/>
<circle cx="34" cy="30" r="29.5" stroke="#535353"/>
</g>
<g filter="url(#filter1_d_152_424)">
<path d="M40.3 12C35.8265 12 32.2 15.358 32.2 19.4992C32.2 23.6404 35.8265 26.9983 40.3 26.9983C44.7735 26.9983 48.4 23.6404 48.4 19.4992C48.4 15.358 44.7735 12 40.3 12ZM26.8 13.6665C22.8236 13.6665 19.6 16.6511 19.6 20.3324C19.6 24.0137 22.8236 26.9983 26.8 26.9983C28.2929 26.9983 29.6557 26.6184 30.855 25.8418C27.7792 21.609 28.2152 17.556 29.8915 14.2914C28.9341 13.8715 27.8825 13.6665 26.8 13.6665ZM21.5125 29.2381C18.2111 30.4996 16 33.5909 16 36.9972V40.3302C16 41.2501 16.8059 41.9966 17.8 41.9966L25.275 42C24.8538 40.7335 24.9777 38.6803 25.0054 37.0189C25.0639 33.4909 26.6398 30.9745 27.257 30.3112C26.1227 30.3029 24.7613 30.048 23.7625 29.6547C23.5213 29.5597 23.3813 29.4847 22.9188 29.2897C22.4654 29.0981 21.9729 29.0614 21.5125 29.2381ZM34.1125 29.2381C30.8111 30.4996 28.6 33.5909 28.6 36.9972V40.3302C28.6 41.2501 29.4059 41.9966 30.4 41.9966H50.2C51.1941 41.9966 52 41.2501 52 40.3302V36.9972C52 33.6709 49.7766 30.6546 46.4875 29.3414C46.0245 29.1564 45.4851 29.1514 45.025 29.3414C43.4324 30.003 41.8808 30.3313 40.3 30.3313C38.7246 30.3313 37.1676 29.9847 35.5188 29.2897C35.0654 29.0981 34.5729 29.0614 34.1125 29.2381Z" fill="#B1AFFF"/>
</g>
<defs>
<filter id="filter0_d_152_424" x="0" y="0" width="68" height="68" filterUnits="userSpaceOnUse" color-interpolation-filters="sRGB">
<feFlood flood-opacity="0" result="BackgroundImageFix"/>
<feColorMatrix in="SourceAlpha" type="matrix" values="0 0 0 0 0 0 0 0 0 0 0 0 0 0 0 0 0 0 127 0" result="hardAlpha"/>
<feOffset dy="4"/>
<feGaussianBlur stdDeviation="2"/>
<feComposite in2="hardAlpha" operator="out"/>
<feColorMatrix type="matrix" values="0 0 0 0 0 0 0 0 0 0 0 0 0 0 0 0 0 0 0.25 0"/>
<feBlend mode="normal" in2="BackgroundImageFix" result="effect1_dropShadow_152_424"/>
<feBlend mode="normal" in="SourceGraphic" in2="effect1_dropShadow_152_424" result="shape"/>
</filter>
<filter id="filter1_d_152_424" x="12" y="12" width="44" height="38" filterUnits="userSpaceOnUse" color-interpolation-filters="sRGB">
<feFlood flood-opacity="0" result="BackgroundImageFix"/>
<feColorMatrix in="SourceAlpha" type="matrix" values="0 0 0 0 0 0 0 0 0 0 0 0 0 0 0 0 0 0 127 0" result="hardAlpha"/>
<feOffset dy="4"/>
<feGaussianBlur stdDeviation="2"/>
<feComposite in2="hardAlpha" operator="out"/>
<feColorMatrix type="matrix" values="0 0 0 0 0 0 0 0 0 0 0 0 0 0 0 0 0 0 0.25 0"/>
<feBlend mode="normal" in2="BackgroundImageFix" result="effect1_dropShadow_152_424"/>
<feBlend mode="normal" in="SourceGraphic" in2="effect1_dropShadow_152_424" result="shape"/>
</filter>
</defs>
</svg>
