<svg width="60" height="60" viewBox="0 0 60 60" fill="none" xmlns="http://www.w3.org/2000/svg">
<circle cx="30" cy="30" r="29.5" fill="#535353" stroke="#535353"/>
<path d="M20.5556 16C16.383 16 13 18.8855 13 22.4444V38.5556C13 42.1145 16.383 45 20.5556 45H39.4444C43.617 45 47 42.1145 47 38.5556V22.4444C47 18.8855 43.617 16 39.4444 16H20.5556ZM37.5556 20.8333C39.6428 20.8333 41.3333 22.2753 41.3333 24.0556C41.3333 25.8358 39.6428 27.2778 37.5556 27.2778C35.4683 27.2778 33.7778 25.8358 33.7778 24.0556C33.7778 22.2753 35.4683 20.8333 37.5556 20.8333ZM23.3889 28.8889C24.4882 28.8905 26.158 30.3502 27.756 32.8667C28.3907 33.8624 28.9592 34.9595 29.4692 36.039C29.7752 36.6834 30.0114 37.1765 30.1171 37.4471C30.6328 38.7634 32.7257 38.9503 33.5417 37.75C33.6229 37.6308 33.7702 37.402 34.0139 37.0959C34.4219 36.5803 34.8865 36.0583 35.372 35.5847C36.5847 34.3989 37.7558 33.7222 38.5 33.7222C39.2537 33.7383 40.4172 34.4134 41.628 35.5847C42.1191 36.06 42.5724 36.5803 42.9861 37.0959C43.1164 37.257 43.1353 37.3327 43.2222 37.4471V38.5556C43.2222 40.3358 41.5317 41.7778 39.4444 41.7778H20.5556C18.4683 41.7778 16.7778 40.3358 16.7778 38.5556V37.1958C16.8968 36.909 17.0555 36.569 17.3086 36.039C17.8242 34.9595 18.3833 33.864 19.0218 32.8667C20.633 30.3453 22.2914 28.8873 23.3889 28.8889Z" fill="#ECECEC"/>
</svg>
