<svg width="34" height="29" viewBox="0 0 34 29" fill="none" xmlns="http://www.w3.org/2000/svg">
<path d="M7.55556 0C3.383 0 0 2.8855 0 6.44444V22.5556C0 26.1145 3.383 29 7.55556 29H26.4444C30.617 29 34 26.1145 34 22.5556V6.44444C34 2.8855 30.617 0 26.4444 0H7.55556ZM24.5556 4.83333C26.6428 4.83333 28.3333 6.27528 28.3333 8.05556C28.3333 9.83583 26.6428 11.2778 24.5556 11.2778C22.4683 11.2778 20.7778 9.83583 20.7778 8.05556C20.7778 6.27528 22.4683 4.83333 24.5556 4.83333ZM10.3889 12.8889C11.4882 12.8905 13.158 14.3502 14.756 16.8667C15.3907 17.8624 15.9592 18.9595 16.4692 20.039C16.7752 20.6834 17.0114 21.1765 17.1171 21.4471C17.6328 22.7634 19.7257 22.9503 20.5417 21.75C20.6229 21.6308 20.7702 21.402 21.0139 21.0959C21.4219 20.5803 21.8865 20.0583 22.372 19.5847C23.5847 18.3989 24.7558 17.7222 25.5 17.7222C26.2537 17.7383 27.4172 18.4134 28.628 19.5847C29.1191 20.06 29.5724 20.5803 29.9861 21.0959C30.1164 21.257 30.1353 21.3327 30.2222 21.4471V22.5556C30.2222 24.3358 28.5317 25.7778 26.4444 25.7778H7.55556C5.46833 25.7778 3.77778 24.3358 3.77778 22.5556V21.1958C3.89678 20.909 4.05546 20.569 4.30857 20.039C4.82423 18.9595 5.38331 17.864 6.02176 16.8667C7.63298 14.3453 9.29144 12.8873 10.3889 12.8889Z" fill="#ECECEC"/>
</svg>
