<svg width="37" height="31" viewBox="0 0 37 31" fill="none" xmlns="http://www.w3.org/2000/svg">
<g clip-path="url(#clip0_19_412)">
<path d="M0 11.0499C0 10.4137 0.386477 9.81685 1.03717 9.44816L17.0705 0.363685C17.9263 -0.121229 19.0737 -0.121228 19.9295 0.363686L35.9628 9.44816C36.6135 9.81685 37 10.4137 37 11.0499V28.0519C37 29.6801 35.3435 31 33.3 31H3.7C1.65655 31 0 29.6801 0 28.0519V11.0499Z" fill="#535353"/>
<path d="M9.25 24.2188H27.75M17.0705 0.363685L1.03717 9.44816C0.386477 9.81685 0 10.4137 0 11.0499V28.0519C0 29.6801 1.65655 31 3.7 31H33.3C35.3435 31 37 29.6801 37 28.0519V11.0499C37 10.4137 36.6135 9.81685 35.9628 9.44816L19.9295 0.363686C19.0737 -0.121228 17.9263 -0.121229 17.0705 0.363685Z" stroke="white" stroke-width="3" stroke-linecap="round" stroke-linejoin="round"/>
</g>
<defs>
<clipPath id="clip0_19_412">
<rect width="37" height="31" fill="white"/>
</clipPath>
</defs>
</svg>
