<svg width="31" height="27" viewBox="0 0 31 27" fill="none" xmlns="http://www.w3.org/2000/svg">
<path d="M27.685 10.5854C27.685 9.89507 27.1253 9.33543 26.435 9.33543C25.7446 9.33543 25.185 9.89507 25.185 10.5854H27.685ZM5.81499 10.5854C5.81499 9.89507 5.25534 9.33543 4.56499 9.33543C3.87463 9.33543 3.31499 9.89507 3.31499 10.5854H5.81499ZM19.2699 24.6258L19.0233 23.4003L19.2699 24.6258ZM11.7301 24.6258L11.9767 23.4003L11.7301 24.6258ZM19.7426 4.57374L18.9287 5.52245L19.7426 4.57374ZM28.1861 13.4644C28.71 13.914 29.4992 13.8536 29.9487 13.3296C30.3982 12.8057 30.3379 12.0165 29.8139 11.567L28.1861 13.4644ZM11.2574 4.57374L12.0713 5.52245V5.52245L11.2574 4.57374ZM1.18609 11.567C0.662132 12.0165 0.60178 12.8057 1.05129 13.3296C1.5008 13.8536 2.28995 13.914 2.81391 13.4644L1.18609 11.567ZM12.0776 21.5759L10.8569 21.307V21.307L12.0776 21.5759ZM12.1066 21.4443L13.3274 21.7133L13.3274 21.7133L12.1066 21.4443ZM18.8934 21.4443L17.6726 21.7133L17.6726 21.7133L18.8934 21.4443ZM18.9224 21.5759L20.1431 21.307L20.1431 21.307L18.9224 21.5759ZM18.4877 24.4274L17.3964 23.8178L17.3964 23.8178L18.4877 24.4274ZM17.2212 24.1313C16.8845 24.734 17.1002 25.4955 17.7029 25.8322C18.3055 26.1689 19.0671 25.9533 19.4038 25.3506L17.2212 24.1313ZM12.5123 24.4274L11.4211 25.0371L11.4211 25.0371L12.5123 24.4274ZM11.5962 25.3506C11.9329 25.9533 12.6945 26.1689 13.2971 25.8322C13.8998 25.4955 14.1155 24.734 13.7788 24.1313L11.5962 25.3506ZM14.5416 19.1766L14.2541 17.9601V17.9601L14.5416 19.1766ZM16.4584 19.1766L16.7459 17.9601L16.4584 19.1766ZM25.185 10.5854V16.87H27.685V10.5854H25.185ZM5.81499 16.87V10.5854H3.31499V16.87H5.81499ZM19.0233 23.4003C16.7064 23.8666 14.2935 23.8666 11.9767 23.4003L11.4835 25.8512C14.1259 26.3829 16.8741 26.3829 19.5165 25.8512L19.0233 23.4003ZM11.9767 23.4003C8.23215 22.6468 5.81499 19.8496 5.81499 16.87H3.31499C3.31499 21.288 6.83307 24.9153 11.4835 25.8512L11.9767 23.4003ZM19.5165 25.8512C24.1669 24.9153 27.685 21.288 27.685 16.87H25.185C25.185 19.8496 22.7678 22.6468 19.0233 23.4003L19.5165 25.8512ZM18.9287 5.52245L28.1861 13.4644L29.8139 11.567L20.5565 3.62502L18.9287 5.52245ZM10.4434 3.62503L1.18609 11.567L2.81391 13.4644L12.0713 5.52245L10.4434 3.62503ZM20.5565 3.62503C19.5817 2.78871 18.761 2.08134 18.0219 1.59757C17.2484 1.09125 16.4496 0.75 15.5 0.75V3.25C15.7931 3.25 16.1156 3.33771 16.6527 3.6893C17.2243 4.06344 17.9036 4.64294 18.9287 5.52245L20.5565 3.62503ZM12.0713 5.52245C13.0964 4.64294 13.7757 4.06344 14.3473 3.6893C14.8844 3.33771 15.2069 3.25 15.5 3.25V0.75C14.5504 0.75 13.7516 1.09125 12.9781 1.59757C12.239 2.08134 11.4183 2.78871 10.4434 3.62503L12.0713 5.52245ZM13.2984 21.8449L13.3274 21.7133L10.8859 21.1753L10.8569 21.307L13.2984 21.8449ZM17.6726 21.7133L17.7017 21.8449L20.1431 21.307L20.1141 21.1753L17.6726 21.7133ZM17.3964 23.8178L17.2212 24.1313L19.4038 25.3506L19.5789 25.0371L17.3964 23.8178ZM11.4211 25.0371L11.5962 25.3506L13.7788 24.1313L13.6036 23.8178L11.4211 25.0371ZM17.7016 21.8449C17.8467 22.5034 17.7468 23.1906 17.3964 23.8178L19.5789 25.0371C20.219 23.8912 20.4237 22.5804 20.1431 21.307L17.7016 21.8449ZM10.8569 21.307C10.5763 22.5804 10.781 23.8912 11.4211 25.0371L13.6036 23.8178C13.2532 23.1906 13.1533 22.5034 13.2984 21.8449L10.8569 21.307ZM14.8291 20.3931C15.2673 20.2895 15.7327 20.2895 16.1709 20.3931L16.7459 17.9601C15.9296 17.7672 15.0704 17.7672 14.2541 17.9601L14.8291 20.3931ZM20.1141 21.1753C19.7524 19.5338 18.3772 18.3457 16.7459 17.9601L16.1709 20.3931C17.0387 20.5982 17.5528 21.1696 17.6726 21.7133L20.1141 21.1753ZM13.3274 21.7133C13.4472 21.1696 13.9613 20.5982 14.8291 20.3931L14.2541 17.9601C12.6228 18.3457 11.2476 19.5338 10.8859 21.1753L13.3274 21.7133Z" fill="#9F9F9F"/>
</svg>
