<svg width="23" height="18" viewBox="0 0 23 18" fill="none" xmlns="http://www.w3.org/2000/svg">
<path d="M1.15 0C0.5152 0 0 0.672 0 1.5C0 2.328 0.5152 3 1.15 3H21.85C22.4848 3 23 2.328 23 1.5C23 0.672 22.4848 0 21.85 0H1.15ZM1.15 7.5C0.5152 7.5 0 8.172 0 9C0 9.828 0.5152 10.5 1.15 10.5H21.85C22.4848 10.5 23 9.828 23 9C23 8.172 22.4848 7.5 21.85 7.5H1.15ZM1.15 15C0.5152 15 0 15.672 0 16.5C0 17.328 0.5152 18 1.15 18H21.85C22.4848 18 23 17.328 23 16.5C23 15.672 22.4848 15 21.85 15H1.15Z" fill="#9F9F9F"/>
</svg>
