<svg width="45" height="45" viewBox="0 0 45 45" fill="none" xmlns="http://www.w3.org/2000/svg">
<circle cx="22.5" cy="22.5" r="22.5" fill="#F1493F"/>
<path d="M19.9019 13.6406C21.0566 11.6406 23.9434 11.6406 25.0981 13.6406L32.6893 26.7891C33.844 28.7891 32.4007 31.2891 30.0913 31.2891H14.9087C12.5993 31.2891 11.156 28.7891 12.3107 26.7891L19.9019 13.6406Z" fill="white"/>
<path fill-rule="evenodd" clip-rule="evenodd" d="M22.5 17.9297C23.0836 17.9297 23.5547 18.3375 23.5547 18.8438V23.6953C23.5547 24.2016 23.0836 24.6094 22.5 24.6094C21.9164 24.6094 21.4453 24.2016 21.4453 23.6953V18.8438C21.4453 18.3375 21.9164 17.9297 22.5 17.9297Z" fill="black"/>
<path fill-rule="evenodd" clip-rule="evenodd" d="M22.5 26.0156C23.0836 26.0156 23.5547 26.4867 23.5547 27.0703C23.5547 27.6539 23.0836 28.125 22.5 28.125C21.9164 28.125 21.4453 27.6539 21.4453 27.0703C21.4453 26.4867 21.9164 26.0156 22.5 26.0156Z" fill="black"/>
</svg>
