<svg width="43" height="44" viewBox="0 0 43 44" fill="none" xmlns="http://www.w3.org/2000/svg">
<path d="M5.50824 17.3479C4.34294 17.8484 3.61964 18.7394 3.60871 20.0008C3.60119 20.8826 4.18276 22.067 5.34806 22.551C5.82805 22.7508 12.5674 23.6784 12.5674 23.6784C12.5674 23.6784 14.3512 29.4479 14.994 31.4756C15.1802 32.0623 15.2863 32.3501 15.6948 32.7333C16.3878 33.3823 17.5593 33.1788 18.066 32.6581C19.4066 31.2831 21.5254 29.1619 21.5254 29.1619L22.4171 29.9044C22.4171 29.9044 26.3769 33.1366 28.5414 34.6583C29.8158 35.5548 30.7003 36.4898 32.1347 36.4953C32.8654 36.4989 34.0373 36.1268 34.812 35.2193C35.3239 34.6198 35.6523 33.6609 35.7794 32.8011C36.0682 30.8486 39.4564 9.73594 39.4421 8.99711C39.4191 7.81827 38.45 7.15459 37.6445 7.16193C37.1385 7.16743 36.7216 7.31778 35.7939 7.60745C28.6175 9.84962 5.98357 17.1444 5.50824 17.3479ZM32.2754 12.6619C32.2754 12.6619 22.819 21.0843 19.0402 24.96C17.8295 26.2011 17.7441 28.3314 17.7441 28.3314L15.7908 21.9368L32.2754 12.6619Z" fill="#535353"/>
</svg>
