<svg width="33" height="37" viewBox="0 0 33 37" fill="none" xmlns="http://www.w3.org/2000/svg">
<path d="M16.1253 0.5C9.76126 0.5 5.37526 4.88601 5.37526 11.25C5.37526 12.119 5.37526 13.0417 5.37526 14.8334C5.37526 16.625 5.08502 17.5926 4.08706 18.4167C3.97419 18.5099 3.50117 18.9166 3.35963 19.033C1.09317 20.9071 -0.0194511 22.663 0.000257254 25.5834C0.0145906 27.5148 1.60022 29.1865 3.58359 29.1668H11.0925C11.0925 29.1668 10.7503 30.2615 10.7503 30.9584C10.7503 33.9272 13.1565 36.3334 16.1253 36.3334C19.0941 36.3334 21.5003 33.9272 21.5003 30.9584C21.5003 30.2615 21.1724 29.1668 21.1724 29.1668H28.6669C30.6449 29.1721 32.2485 27.5256 32.2503 25.5834C32.2538 22.6845 31.1287 20.8982 28.8909 19.033C28.744 18.9094 28.2244 18.5135 28.1079 18.4167C27.1315 17.6033 26.8753 16.625 26.8753 14.8334C26.8753 12.5938 26.8753 11.25 26.8753 11.25C26.8753 4.88601 22.4893 0.5 16.1253 0.5ZM16.1253 29.1668C17.1143 29.1668 17.9169 29.9694 17.9169 30.9584C17.9169 31.9474 17.1143 32.7501 16.1253 32.7501C15.1363 32.7501 14.3336 31.9474 14.3336 30.9584C14.3336 29.9694 15.1363 29.1668 16.1253 29.1668Z" fill="#FFE072"/>
</svg>
